<mxfile host="app.diagrams.net" modified="2023-03-27T16:00:05.923Z" agent="Mozilla/5.0 (Windows NT 10.0; Win64; x64) AppleWebKit/537.36 (KHTML, like Gecko) Chrome/111.0.0.0 Safari/537.36" etag="empC5Yu05yuQqe4MeNI2" version="21.1.0" type="github">
  <diagram name="Сторінка-1" id="FGZ6uZ36H_6Fus4RmTAJ">
    <mxGraphModel dx="3452" dy="1308" grid="1" gridSize="10" guides="1" tooltips="1" connect="1" arrows="1" fold="1" page="1" pageScale="1" pageWidth="827" pageHeight="1169" math="0" shadow="0">
      <root>
        <mxCell id="0" />
        <mxCell id="1" parent="0" />
        <mxCell id="Tp9BF6i-DsWpGKvdjkL9-1" value="В" style="rounded=0;whiteSpace=wrap;html=1;fontSize=24;" parent="1" vertex="1">
          <mxGeometry x="440" y="280" width="40" height="40" as="geometry" />
        </mxCell>
        <mxCell id="Tp9BF6i-DsWpGKvdjkL9-2" value="І" style="rounded=0;whiteSpace=wrap;html=1;fontSize=24;" parent="1" vertex="1">
          <mxGeometry x="400" y="280" width="40" height="40" as="geometry" />
        </mxCell>
        <mxCell id="Tp9BF6i-DsWpGKvdjkL9-3" value="Н" style="rounded=0;whiteSpace=wrap;html=1;fontSize=24;" parent="1" vertex="1">
          <mxGeometry x="360" y="280" width="40" height="40" as="geometry" />
        </mxCell>
        <mxCell id="Tp9BF6i-DsWpGKvdjkL9-4" value="Г" style="rounded=0;whiteSpace=wrap;html=1;fontSize=24;" parent="1" vertex="1">
          <mxGeometry x="320" y="280" width="40" height="40" as="geometry" />
        </mxCell>
        <mxCell id="Tp9BF6i-DsWpGKvdjkL9-5" value="У" style="rounded=0;whiteSpace=wrap;html=1;fontSize=24;" parent="1" vertex="1">
          <mxGeometry x="280" y="280" width="40" height="40" as="geometry" />
        </mxCell>
        <mxCell id="Tp9BF6i-DsWpGKvdjkL9-6" value="Н" style="rounded=0;whiteSpace=wrap;html=1;fontSize=24;" parent="1" vertex="1">
          <mxGeometry x="400" y="240" width="40" height="40" as="geometry" />
        </mxCell>
        <mxCell id="Tp9BF6i-DsWpGKvdjkL9-8" value="Д" style="rounded=0;whiteSpace=wrap;html=1;fontSize=24;" parent="1" vertex="1">
          <mxGeometry x="400" y="200" width="40" height="40" as="geometry" />
        </mxCell>
        <mxCell id="Tp9BF6i-DsWpGKvdjkL9-9" value="С" style="rounded=0;whiteSpace=wrap;html=1;fontSize=24;" parent="1" vertex="1">
          <mxGeometry x="600" y="200" width="40" height="40" as="geometry" />
        </mxCell>
        <mxCell id="Tp9BF6i-DsWpGKvdjkL9-10" value="А" style="rounded=0;whiteSpace=wrap;html=1;fontSize=24;" parent="1" vertex="1">
          <mxGeometry x="560" y="200" width="40" height="40" as="geometry" />
        </mxCell>
        <mxCell id="Tp9BF6i-DsWpGKvdjkL9-11" value="Б" style="rounded=0;whiteSpace=wrap;html=1;fontSize=24;" parent="1" vertex="1">
          <mxGeometry x="520" y="200" width="40" height="40" as="geometry" />
        </mxCell>
        <mxCell id="Tp9BF6i-DsWpGKvdjkL9-12" value="Н" style="rounded=0;whiteSpace=wrap;html=1;fontSize=24;" parent="1" vertex="1">
          <mxGeometry x="480" y="200" width="40" height="40" as="geometry" />
        </mxCell>
        <mxCell id="Tp9BF6i-DsWpGKvdjkL9-13" value="О" style="rounded=0;whiteSpace=wrap;html=1;fontSize=24;" parent="1" vertex="1">
          <mxGeometry x="440" y="200" width="40" height="40" as="geometry" />
        </mxCell>
        <mxCell id="Tp9BF6i-DsWpGKvdjkL9-14" value="В" style="rounded=0;whiteSpace=wrap;html=1;fontSize=24;" parent="1" vertex="1">
          <mxGeometry x="600" y="320" width="40" height="40" as="geometry" />
        </mxCell>
        <mxCell id="Tp9BF6i-DsWpGKvdjkL9-15" value="А" style="rounded=0;whiteSpace=wrap;html=1;fontSize=24;" parent="1" vertex="1">
          <mxGeometry x="600" y="280" width="40" height="40" as="geometry" />
        </mxCell>
        <mxCell id="Tp9BF6i-DsWpGKvdjkL9-16" value="Л" style="rounded=0;whiteSpace=wrap;html=1;fontSize=24;" parent="1" vertex="1">
          <mxGeometry x="600" y="240" width="40" height="40" as="geometry" />
        </mxCell>
        <mxCell id="Tp9BF6i-DsWpGKvdjkL9-17" value="И" style="rounded=0;whiteSpace=wrap;html=1;fontSize=24;" parent="1" vertex="1">
          <mxGeometry x="600" y="440" width="40" height="40" as="geometry" />
        </mxCell>
        <mxCell id="Tp9BF6i-DsWpGKvdjkL9-18" value="Т" style="rounded=0;whiteSpace=wrap;html=1;fontSize=24;" parent="1" vertex="1">
          <mxGeometry x="600" y="400" width="40" height="40" as="geometry" />
        </mxCell>
        <mxCell id="Tp9BF6i-DsWpGKvdjkL9-19" value="У" style="rounded=0;whiteSpace=wrap;html=1;fontSize=24;" parent="1" vertex="1">
          <mxGeometry x="600" y="360" width="40" height="40" as="geometry" />
        </mxCell>
        <mxCell id="Tp9BF6i-DsWpGKvdjkL9-20" value="М" style="rounded=0;whiteSpace=wrap;html=1;fontSize=24;" parent="1" vertex="1">
          <mxGeometry x="280" y="320" width="40" height="40" as="geometry" />
        </mxCell>
        <mxCell id="Tp9BF6i-DsWpGKvdjkL9-21" value="Ь" style="rounded=0;whiteSpace=wrap;html=1;fontSize=24;" parent="1" vertex="1">
          <mxGeometry x="280" y="440" width="40" height="40" as="geometry" />
        </mxCell>
        <mxCell id="Tp9BF6i-DsWpGKvdjkL9-22" value="Н" style="rounded=0;whiteSpace=wrap;html=1;fontSize=24;" parent="1" vertex="1">
          <mxGeometry x="280" y="400" width="40" height="40" as="geometry" />
        </mxCell>
        <mxCell id="Tp9BF6i-DsWpGKvdjkL9-23" value="А" style="rounded=0;whiteSpace=wrap;html=1;fontSize=24;" parent="1" vertex="1">
          <mxGeometry x="280" y="360" width="40" height="40" as="geometry" />
        </mxCell>
        <mxCell id="Tp9BF6i-DsWpGKvdjkL9-28" value="Р" style="rounded=0;whiteSpace=wrap;html=1;fontSize=24;" parent="1" vertex="1">
          <mxGeometry x="40" y="440" width="40" height="40" as="geometry" />
        </mxCell>
        <mxCell id="Tp9BF6i-DsWpGKvdjkL9-29" value="Т" style="rounded=0;whiteSpace=wrap;html=1;fontSize=24;" parent="1" vertex="1">
          <mxGeometry x="240" y="440" width="40" height="40" as="geometry" />
        </mxCell>
        <mxCell id="Tp9BF6i-DsWpGKvdjkL9-30" value="Я" style="rounded=0;whiteSpace=wrap;html=1;fontSize=24;" parent="1" vertex="1">
          <mxGeometry x="200" y="440" width="40" height="40" as="geometry" />
        </mxCell>
        <mxCell id="Tp9BF6i-DsWpGKvdjkL9-31" value="&#39;" style="rounded=0;whiteSpace=wrap;html=1;fontSize=24;" parent="1" vertex="1">
          <mxGeometry x="160" y="440" width="40" height="40" as="geometry" />
        </mxCell>
        <mxCell id="Tp9BF6i-DsWpGKvdjkL9-32" value="П" style="rounded=0;whiteSpace=wrap;html=1;fontSize=24;" parent="1" vertex="1">
          <mxGeometry x="120" y="440" width="40" height="40" as="geometry" />
        </mxCell>
        <mxCell id="Tp9BF6i-DsWpGKvdjkL9-33" value="И" style="rounded=0;whiteSpace=wrap;html=1;fontSize=24;" parent="1" vertex="1">
          <mxGeometry x="80" y="440" width="40" height="40" as="geometry" />
        </mxCell>
        <mxCell id="Tp9BF6i-DsWpGKvdjkL9-42" value="С" style="rounded=0;whiteSpace=wrap;html=1;fontSize=24;" parent="1" vertex="1">
          <mxGeometry x="240" y="360" width="40" height="40" as="geometry" />
        </mxCell>
        <mxCell id="Tp9BF6i-DsWpGKvdjkL9-43" value="Е" style="rounded=0;whiteSpace=wrap;html=1;fontSize=24;" parent="1" vertex="1">
          <mxGeometry x="200" y="360" width="40" height="40" as="geometry" />
        </mxCell>
        <mxCell id="Tp9BF6i-DsWpGKvdjkL9-44" value="Д" style="rounded=0;whiteSpace=wrap;html=1;fontSize=24;" parent="1" vertex="1">
          <mxGeometry x="160" y="360" width="40" height="40" as="geometry" />
        </mxCell>
        <mxCell id="Tp9BF6i-DsWpGKvdjkL9-45" value="О" style="rounded=0;whiteSpace=wrap;html=1;fontSize=24;" parent="1" vertex="1">
          <mxGeometry x="120" y="360" width="40" height="40" as="geometry" />
        </mxCell>
        <mxCell id="Tp9BF6i-DsWpGKvdjkL9-47" value="П" style="rounded=0;whiteSpace=wrap;html=1;fontSize=24;" parent="1" vertex="1">
          <mxGeometry y="440" width="40" height="40" as="geometry" />
        </mxCell>
        <mxCell id="Tp9BF6i-DsWpGKvdjkL9-48" value="П" style="rounded=0;whiteSpace=wrap;html=1;fontSize=24;" parent="1" vertex="1">
          <mxGeometry x="400" y="320" width="40" height="40" as="geometry" />
        </mxCell>
        <mxCell id="Tp9BF6i-DsWpGKvdjkL9-49" value="П" style="rounded=0;whiteSpace=wrap;html=1;fontSize=24;" parent="1" vertex="1">
          <mxGeometry x="400" y="440" width="40" height="40" as="geometry" />
        </mxCell>
        <mxCell id="Tp9BF6i-DsWpGKvdjkL9-50" value="О" style="rounded=0;whiteSpace=wrap;html=1;fontSize=24;" parent="1" vertex="1">
          <mxGeometry x="400" y="400" width="40" height="40" as="geometry" />
        </mxCell>
        <mxCell id="Tp9BF6i-DsWpGKvdjkL9-51" value="Р" style="rounded=0;whiteSpace=wrap;html=1;fontSize=24;" parent="1" vertex="1">
          <mxGeometry x="400" y="360" width="40" height="40" as="geometry" />
        </mxCell>
        <mxCell id="Tp9BF6i-DsWpGKvdjkL9-52" value="Р" style="rounded=0;whiteSpace=wrap;html=1;fontSize=24;" parent="1" vertex="1">
          <mxGeometry x="400" y="560" width="40" height="40" as="geometry" />
        </mxCell>
        <mxCell id="Tp9BF6i-DsWpGKvdjkL9-53" value="Т" style="rounded=0;whiteSpace=wrap;html=1;fontSize=24;" parent="1" vertex="1">
          <mxGeometry x="400" y="520" width="40" height="40" as="geometry" />
        </mxCell>
        <mxCell id="Tp9BF6i-DsWpGKvdjkL9-54" value="Е" style="rounded=0;whiteSpace=wrap;html=1;fontSize=24;" parent="1" vertex="1">
          <mxGeometry x="400" y="480" width="40" height="40" as="geometry" />
        </mxCell>
        <mxCell id="Tp9BF6i-DsWpGKvdjkL9-55" value="О" style="rounded=0;whiteSpace=wrap;html=1;fontSize=24;" parent="1" vertex="1">
          <mxGeometry x="400" y="600" width="40" height="40" as="geometry" />
        </mxCell>
        <mxCell id="Tp9BF6i-DsWpGKvdjkL9-56" value="Ь" style="rounded=0;whiteSpace=wrap;html=1;fontSize=24;" parent="1" vertex="1">
          <mxGeometry x="400" y="720" width="40" height="40" as="geometry" />
        </mxCell>
        <mxCell id="Tp9BF6i-DsWpGKvdjkL9-57" value="С" style="rounded=0;whiteSpace=wrap;html=1;fontSize=24;" parent="1" vertex="1">
          <mxGeometry x="400" y="680" width="40" height="40" as="geometry" />
        </mxCell>
        <mxCell id="Tp9BF6i-DsWpGKvdjkL9-58" value="В" style="rounded=0;whiteSpace=wrap;html=1;fontSize=24;" parent="1" vertex="1">
          <mxGeometry x="400" y="640" width="40" height="40" as="geometry" />
        </mxCell>
        <mxCell id="Tp9BF6i-DsWpGKvdjkL9-62" value="А" style="rounded=0;whiteSpace=wrap;html=1;fontSize=24;" parent="1" vertex="1">
          <mxGeometry x="400" y="800" width="40" height="40" as="geometry" />
        </mxCell>
        <mxCell id="Tp9BF6i-DsWpGKvdjkL9-63" value="К" style="rounded=0;whiteSpace=wrap;html=1;fontSize=24;" parent="1" vertex="1">
          <mxGeometry x="400" y="760" width="40" height="40" as="geometry" />
        </mxCell>
        <mxCell id="Tp9BF6i-DsWpGKvdjkL9-64" value="І" style="rounded=0;whiteSpace=wrap;html=1;fontSize=24;" parent="1" vertex="1">
          <mxGeometry x="480" y="360" width="40" height="40" as="geometry" />
        </mxCell>
        <mxCell id="Tp9BF6i-DsWpGKvdjkL9-65" value="Б" style="rounded=0;whiteSpace=wrap;html=1;fontSize=24;" parent="1" vertex="1">
          <mxGeometry x="480" y="320" width="40" height="40" as="geometry" />
        </mxCell>
        <mxCell id="Tp9BF6i-DsWpGKvdjkL9-66" value="" style="rounded=0;whiteSpace=wrap;html=1;fontSize=24;" parent="1" vertex="1">
          <mxGeometry x="480" y="480" width="40" height="40" as="geometry" />
        </mxCell>
        <mxCell id="Tp9BF6i-DsWpGKvdjkL9-67" value="А" style="rounded=0;whiteSpace=wrap;html=1;fontSize=24;" parent="1" vertex="1">
          <mxGeometry x="480" y="440" width="40" height="40" as="geometry" />
        </mxCell>
        <mxCell id="Tp9BF6i-DsWpGKvdjkL9-68" value="Л" style="rounded=0;whiteSpace=wrap;html=1;fontSize=24;" parent="1" vertex="1">
          <mxGeometry x="480" y="400" width="40" height="40" as="geometry" />
        </mxCell>
        <mxCell id="Tp9BF6i-DsWpGKvdjkL9-69" value="Ц" style="rounded=0;whiteSpace=wrap;html=1;fontSize=24;" parent="1" vertex="1">
          <mxGeometry x="480" y="520" width="40" height="40" as="geometry" />
        </mxCell>
        <mxCell id="Tp9BF6i-DsWpGKvdjkL9-70" value="К" style="rounded=0;whiteSpace=wrap;html=1;fontSize=24;" parent="1" vertex="1">
          <mxGeometry x="480" y="640" width="40" height="40" as="geometry" />
        </mxCell>
        <mxCell id="Tp9BF6i-DsWpGKvdjkL9-71" value="Р" style="rounded=0;whiteSpace=wrap;html=1;fontSize=24;" parent="1" vertex="1">
          <mxGeometry x="480" y="600" width="40" height="40" as="geometry" />
        </mxCell>
        <mxCell id="Tp9BF6i-DsWpGKvdjkL9-72" value="Е" style="rounded=0;whiteSpace=wrap;html=1;fontSize=24;" parent="1" vertex="1">
          <mxGeometry x="480" y="560" width="40" height="40" as="geometry" />
        </mxCell>
        <mxCell id="Tp9BF6i-DsWpGKvdjkL9-73" value="А" style="rounded=0;whiteSpace=wrap;html=1;fontSize=24;" parent="1" vertex="1">
          <mxGeometry x="480" y="720" width="40" height="40" as="geometry" />
        </mxCell>
        <mxCell id="Tp9BF6i-DsWpGKvdjkL9-74" value="В" style="rounded=0;whiteSpace=wrap;html=1;fontSize=24;" parent="1" vertex="1">
          <mxGeometry x="480" y="680" width="40" height="40" as="geometry" />
        </mxCell>
        <mxCell id="Tp9BF6i-DsWpGKvdjkL9-75" value="К" style="rounded=0;whiteSpace=wrap;html=1;fontSize=24;" parent="1" vertex="1">
          <mxGeometry x="360" y="800" width="40" height="40" as="geometry" />
        </mxCell>
        <mxCell id="Tp9BF6i-DsWpGKvdjkL9-76" value="Н" style="rounded=0;whiteSpace=wrap;html=1;fontSize=24;" parent="1" vertex="1">
          <mxGeometry x="120" y="800" width="40" height="40" as="geometry" />
        </mxCell>
        <mxCell id="Tp9BF6i-DsWpGKvdjkL9-77" value="Ь" style="rounded=0;whiteSpace=wrap;html=1;fontSize=24;" parent="1" vertex="1">
          <mxGeometry x="320" y="800" width="40" height="40" as="geometry" />
        </mxCell>
        <mxCell id="Tp9BF6i-DsWpGKvdjkL9-78" value="Ц" style="rounded=0;whiteSpace=wrap;html=1;fontSize=24;" parent="1" vertex="1">
          <mxGeometry x="280" y="800" width="40" height="40" as="geometry" />
        </mxCell>
        <mxCell id="Tp9BF6i-DsWpGKvdjkL9-79" value="Е" style="rounded=0;whiteSpace=wrap;html=1;fontSize=24;" parent="1" vertex="1">
          <mxGeometry x="240" y="800" width="40" height="40" as="geometry" />
        </mxCell>
        <mxCell id="Tp9BF6i-DsWpGKvdjkL9-80" value="В" style="rounded=0;whiteSpace=wrap;html=1;fontSize=24;" parent="1" vertex="1">
          <mxGeometry x="200" y="800" width="40" height="40" as="geometry" />
        </mxCell>
        <mxCell id="Tp9BF6i-DsWpGKvdjkL9-81" value="І" style="rounded=0;whiteSpace=wrap;html=1;fontSize=24;" parent="1" vertex="1">
          <mxGeometry x="160" y="800" width="40" height="40" as="geometry" />
        </mxCell>
        <mxCell id="Tp9BF6i-DsWpGKvdjkL9-83" value="С" style="rounded=0;whiteSpace=wrap;html=1;fontSize=24;" parent="1" vertex="1">
          <mxGeometry x="360" y="720" width="40" height="40" as="geometry" />
        </mxCell>
        <mxCell id="Tp9BF6i-DsWpGKvdjkL9-84" value="Х" style="rounded=0;whiteSpace=wrap;html=1;fontSize=24;" parent="1" vertex="1">
          <mxGeometry x="120" y="720" width="40" height="40" as="geometry" />
        </mxCell>
        <mxCell id="Tp9BF6i-DsWpGKvdjkL9-85" value="В" style="rounded=0;whiteSpace=wrap;html=1;fontSize=24;" parent="1" vertex="1">
          <mxGeometry x="320" y="720" width="40" height="40" as="geometry" />
        </mxCell>
        <mxCell id="Tp9BF6i-DsWpGKvdjkL9-86" value="І" style="rounded=0;whiteSpace=wrap;html=1;fontSize=24;" parent="1" vertex="1">
          <mxGeometry x="280" y="720" width="40" height="40" as="geometry" />
        </mxCell>
        <mxCell id="Tp9BF6i-DsWpGKvdjkL9-87" value="К" style="rounded=0;whiteSpace=wrap;html=1;fontSize=24;" parent="1" vertex="1">
          <mxGeometry x="240" y="720" width="40" height="40" as="geometry" />
        </mxCell>
        <mxCell id="Tp9BF6i-DsWpGKvdjkL9-88" value="Р" style="rounded=0;whiteSpace=wrap;html=1;fontSize=24;" parent="1" vertex="1">
          <mxGeometry x="200" y="720" width="40" height="40" as="geometry" />
        </mxCell>
        <mxCell id="Tp9BF6i-DsWpGKvdjkL9-89" value="А" style="rounded=0;whiteSpace=wrap;html=1;fontSize=24;" parent="1" vertex="1">
          <mxGeometry x="160" y="720" width="40" height="40" as="geometry" />
        </mxCell>
        <mxCell id="Tp9BF6i-DsWpGKvdjkL9-90" value="Ч" style="rounded=0;whiteSpace=wrap;html=1;fontSize=24;" parent="1" vertex="1">
          <mxGeometry y="800" width="40" height="40" as="geometry" />
        </mxCell>
        <mxCell id="Tp9BF6i-DsWpGKvdjkL9-91" value="Р" style="rounded=0;whiteSpace=wrap;html=1;fontSize=24;" parent="1" vertex="1">
          <mxGeometry x="80" y="800" width="40" height="40" as="geometry" />
        </mxCell>
        <mxCell id="Tp9BF6i-DsWpGKvdjkL9-92" value="Е" style="rounded=0;whiteSpace=wrap;html=1;fontSize=24;" parent="1" vertex="1">
          <mxGeometry x="40" y="800" width="40" height="40" as="geometry" />
        </mxCell>
        <mxCell id="Tp9BF6i-DsWpGKvdjkL9-93" value="З" style="rounded=0;whiteSpace=wrap;html=1;fontSize=24;" parent="1" vertex="1">
          <mxGeometry x="160" y="840" width="40" height="40" as="geometry" />
        </mxCell>
        <mxCell id="Tp9BF6i-DsWpGKvdjkL9-94" value="А" style="rounded=0;whiteSpace=wrap;html=1;fontSize=24;" parent="1" vertex="1">
          <mxGeometry x="160" y="880" width="40" height="40" as="geometry" />
        </mxCell>
        <mxCell id="Tp9BF6i-DsWpGKvdjkL9-95" value="Я" style="rounded=0;whiteSpace=wrap;html=1;fontSize=24;" parent="1" vertex="1">
          <mxGeometry x="160" y="1000" width="40" height="40" as="geometry" />
        </mxCell>
        <mxCell id="Tp9BF6i-DsWpGKvdjkL9-96" value="І" style="rounded=0;whiteSpace=wrap;html=1;fontSize=24;" parent="1" vertex="1">
          <mxGeometry x="160" y="960" width="40" height="40" as="geometry" />
        </mxCell>
        <mxCell id="Tp9BF6i-DsWpGKvdjkL9-97" value="Ц" style="rounded=0;whiteSpace=wrap;html=1;fontSize=24;" parent="1" vertex="1">
          <mxGeometry x="160" y="920" width="40" height="40" as="geometry" />
        </mxCell>
        <mxCell id="Tp9BF6i-DsWpGKvdjkL9-98" value="Р" style="rounded=0;whiteSpace=wrap;html=1;fontSize=24;" parent="1" vertex="1">
          <mxGeometry x="160" y="680" width="40" height="40" as="geometry" />
        </mxCell>
        <mxCell id="Tp9BF6i-DsWpGKvdjkL9-99" value="У" style="rounded=0;whiteSpace=wrap;html=1;fontSize=24;" parent="1" vertex="1">
          <mxGeometry x="160" y="640" width="40" height="40" as="geometry" />
        </mxCell>
        <mxCell id="Tp9BF6i-DsWpGKvdjkL9-100" value="Р" style="rounded=0;whiteSpace=wrap;html=1;fontSize=24;" parent="1" vertex="1">
          <mxGeometry x="160" y="600" width="40" height="40" as="geometry" />
        </mxCell>
        <mxCell id="Tp9BF6i-DsWpGKvdjkL9-101" value="Л" style="rounded=0;whiteSpace=wrap;html=1;fontSize=24;" parent="1" vertex="1">
          <mxGeometry x="160" y="760" width="40" height="40" as="geometry" />
        </mxCell>
        <mxCell id="Tp9BF6i-DsWpGKvdjkL9-102" value="І" style="rounded=0;whiteSpace=wrap;html=1;fontSize=24;" parent="1" vertex="1">
          <mxGeometry x="200" y="600" width="40" height="40" as="geometry" />
        </mxCell>
        <mxCell id="Tp9BF6i-DsWpGKvdjkL9-103" value="Г" style="rounded=0;whiteSpace=wrap;html=1;fontSize=24;" parent="1" vertex="1">
          <mxGeometry x="240" y="600" width="40" height="40" as="geometry" />
        </mxCell>
        <mxCell id="Tp9BF6i-DsWpGKvdjkL9-104" value="" style="rounded=0;whiteSpace=wrap;html=1;fontSize=24;" parent="1" vertex="1">
          <mxGeometry x="120" y="600" width="40" height="40" as="geometry" />
        </mxCell>
        <mxCell id="Tp9BF6i-DsWpGKvdjkL9-105" value="К" style="rounded=0;whiteSpace=wrap;html=1;fontSize=24;" parent="1" vertex="1">
          <mxGeometry x="-120" y="600" width="40" height="40" as="geometry" />
        </mxCell>
        <mxCell id="Tp9BF6i-DsWpGKvdjkL9-106" value="Й" style="rounded=0;whiteSpace=wrap;html=1;fontSize=24;" parent="1" vertex="1">
          <mxGeometry x="80" y="600" width="40" height="40" as="geometry" />
        </mxCell>
        <mxCell id="Tp9BF6i-DsWpGKvdjkL9-107" value="И" style="rounded=0;whiteSpace=wrap;html=1;fontSize=24;" parent="1" vertex="1">
          <mxGeometry x="40" y="600" width="40" height="40" as="geometry" />
        </mxCell>
        <mxCell id="Tp9BF6i-DsWpGKvdjkL9-108" value="В" style="rounded=0;whiteSpace=wrap;html=1;fontSize=24;" parent="1" vertex="1">
          <mxGeometry y="600" width="40" height="40" as="geometry" />
        </mxCell>
        <mxCell id="Tp9BF6i-DsWpGKvdjkL9-109" value="И" style="rounded=0;whiteSpace=wrap;html=1;fontSize=24;" parent="1" vertex="1">
          <mxGeometry x="-40" y="600" width="40" height="40" as="geometry" />
        </mxCell>
        <mxCell id="Tp9BF6i-DsWpGKvdjkL9-110" value="Р" style="rounded=0;whiteSpace=wrap;html=1;fontSize=24;" parent="1" vertex="1">
          <mxGeometry x="-80" y="600" width="40" height="40" as="geometry" />
        </mxCell>
        <mxCell id="Tp9BF6i-DsWpGKvdjkL9-111" value="Р" style="rounded=0;whiteSpace=wrap;html=1;fontSize=24;" parent="1" vertex="1">
          <mxGeometry x="-120" y="680" width="40" height="40" as="geometry" />
        </mxCell>
        <mxCell id="Tp9BF6i-DsWpGKvdjkL9-112" value="О" style="rounded=0;whiteSpace=wrap;html=1;fontSize=24;" parent="1" vertex="1">
          <mxGeometry x="-120" y="640" width="40" height="40" as="geometry" />
        </mxCell>
        <mxCell id="Tp9BF6i-DsWpGKvdjkL9-113" value="К" style="rounded=0;whiteSpace=wrap;html=1;fontSize=24;" parent="1" vertex="1">
          <mxGeometry x="-80" y="680" width="40" height="40" as="geometry" />
        </mxCell>
        <mxCell id="Tp9BF6i-DsWpGKvdjkL9-114" value="В" style="rounded=0;whiteSpace=wrap;html=1;fontSize=24;" parent="1" vertex="1">
          <mxGeometry y="680" width="40" height="40" as="geometry" />
        </mxCell>
        <mxCell id="Tp9BF6i-DsWpGKvdjkL9-115" value="І" style="rounded=0;whiteSpace=wrap;html=1;fontSize=24;" parent="1" vertex="1">
          <mxGeometry x="-40" y="680" width="40" height="40" as="geometry" />
        </mxCell>
        <mxCell id="Tp9BF6i-DsWpGKvdjkL9-117" value="А" style="rounded=0;whiteSpace=wrap;html=1;fontSize=24;" parent="1" vertex="1">
          <mxGeometry x="-160" y="680" width="40" height="40" as="geometry" />
        </mxCell>
        <mxCell id="Tp9BF6i-DsWpGKvdjkL9-118" value="Х" style="rounded=0;whiteSpace=wrap;html=1;fontSize=24;" parent="1" vertex="1">
          <mxGeometry x="-200" y="680" width="40" height="40" as="geometry" />
        </mxCell>
        <mxCell id="Tp9BF6i-DsWpGKvdjkL9-119" value="" style="rounded=0;whiteSpace=wrap;html=1;fontSize=24;" parent="1" vertex="1">
          <mxGeometry y="920" width="40" height="40" as="geometry" />
        </mxCell>
        <mxCell id="Tp9BF6i-DsWpGKvdjkL9-120" value="О" style="rounded=0;whiteSpace=wrap;html=1;fontSize=24;" parent="1" vertex="1">
          <mxGeometry x="-240" y="920" width="40" height="40" as="geometry" />
        </mxCell>
        <mxCell id="Tp9BF6i-DsWpGKvdjkL9-121" value="К" style="rounded=0;whiteSpace=wrap;html=1;fontSize=24;" parent="1" vertex="1">
          <mxGeometry x="-40" y="920" width="40" height="40" as="geometry" />
        </mxCell>
        <mxCell id="Tp9BF6i-DsWpGKvdjkL9-122" value="Ь" style="rounded=0;whiteSpace=wrap;html=1;fontSize=24;" parent="1" vertex="1">
          <mxGeometry x="-80" y="920" width="40" height="40" as="geometry" />
        </mxCell>
        <mxCell id="Tp9BF6i-DsWpGKvdjkL9-123" value="К" style="rounded=0;whiteSpace=wrap;html=1;fontSize=24;" parent="1" vertex="1">
          <mxGeometry x="-120" y="1000" width="40" height="40" as="geometry" />
        </mxCell>
        <mxCell id="Tp9BF6i-DsWpGKvdjkL9-124" value="Е" style="rounded=0;whiteSpace=wrap;html=1;fontSize=24;" parent="1" vertex="1">
          <mxGeometry x="-160" y="920" width="40" height="40" as="geometry" />
        </mxCell>
        <mxCell id="Tp9BF6i-DsWpGKvdjkL9-125" value="Д" style="rounded=0;whiteSpace=wrap;html=1;fontSize=24;" parent="1" vertex="1">
          <mxGeometry x="-200" y="920" width="40" height="40" as="geometry" />
        </mxCell>
        <mxCell id="Tp9BF6i-DsWpGKvdjkL9-126" value="И" style="rounded=0;whiteSpace=wrap;html=1;fontSize=24;" parent="1" vertex="1">
          <mxGeometry x="-120" y="1040" width="40" height="40" as="geometry" />
        </mxCell>
        <mxCell id="Tp9BF6i-DsWpGKvdjkL9-128" value="Й" style="rounded=0;whiteSpace=wrap;html=1;fontSize=24;" parent="1" vertex="1">
          <mxGeometry x="-120" y="1080" width="40" height="40" as="geometry" />
        </mxCell>
        <mxCell id="Tp9BF6i-DsWpGKvdjkL9-130" value="С" style="rounded=0;whiteSpace=wrap;html=1;fontSize=24;" parent="1" vertex="1">
          <mxGeometry x="-120" y="760" width="40" height="40" as="geometry" />
        </mxCell>
        <mxCell id="Tp9BF6i-DsWpGKvdjkL9-131" value="Т" style="rounded=0;whiteSpace=wrap;html=1;fontSize=24;" parent="1" vertex="1">
          <mxGeometry x="-120" y="800" width="40" height="40" as="geometry" />
        </mxCell>
        <mxCell id="Tp9BF6i-DsWpGKvdjkL9-132" value="Е" style="rounded=0;whiteSpace=wrap;html=1;fontSize=24;" parent="1" vertex="1">
          <mxGeometry x="-120" y="840" width="40" height="40" as="geometry" />
        </mxCell>
        <mxCell id="Tp9BF6i-DsWpGKvdjkL9-133" value="Ь" style="rounded=0;whiteSpace=wrap;html=1;fontSize=24;" parent="1" vertex="1">
          <mxGeometry x="-120" y="960" width="40" height="40" as="geometry" />
        </mxCell>
        <mxCell id="Tp9BF6i-DsWpGKvdjkL9-134" value="С" style="rounded=0;whiteSpace=wrap;html=1;fontSize=24;" parent="1" vertex="1">
          <mxGeometry x="-120" y="920" width="40" height="40" as="geometry" />
        </mxCell>
        <mxCell id="Tp9BF6i-DsWpGKvdjkL9-135" value="Н" style="rounded=0;whiteSpace=wrap;html=1;fontSize=24;" parent="1" vertex="1">
          <mxGeometry x="-120" y="880" width="40" height="40" as="geometry" />
        </mxCell>
        <mxCell id="Tp9BF6i-DsWpGKvdjkL9-136" value="О" style="rounded=0;whiteSpace=wrap;html=1;fontSize=24;" parent="1" vertex="1">
          <mxGeometry x="-120" y="720" width="40" height="40" as="geometry" />
        </mxCell>
        <mxCell id="Tp9BF6i-DsWpGKvdjkL9-137" value="Р" style="rounded=0;whiteSpace=wrap;html=1;fontSize=24;" parent="1" vertex="1">
          <mxGeometry x="80" y="960" width="40" height="40" as="geometry" />
        </mxCell>
        <mxCell id="Tp9BF6i-DsWpGKvdjkL9-138" value="Е" style="rounded=0;whiteSpace=wrap;html=1;fontSize=24;" parent="1" vertex="1">
          <mxGeometry x="40" y="960" width="40" height="40" as="geometry" />
        </mxCell>
        <mxCell id="Tp9BF6i-DsWpGKvdjkL9-139" value="Ч" style="rounded=0;whiteSpace=wrap;html=1;fontSize=24;" parent="1" vertex="1">
          <mxGeometry y="960" width="40" height="40" as="geometry" />
        </mxCell>
        <mxCell id="Tp9BF6i-DsWpGKvdjkL9-140" value="А" style="rounded=0;whiteSpace=wrap;html=1;fontSize=24;" parent="1" vertex="1">
          <mxGeometry y="920" width="40" height="40" as="geometry" />
        </mxCell>
        <mxCell id="Tp9BF6i-DsWpGKvdjkL9-141" value="Ь" style="rounded=0;whiteSpace=wrap;html=1;fontSize=24;" parent="1" vertex="1">
          <mxGeometry x="360" y="960" width="40" height="40" as="geometry" />
        </mxCell>
        <mxCell id="Tp9BF6i-DsWpGKvdjkL9-142" value="С" style="rounded=0;whiteSpace=wrap;html=1;fontSize=24;" parent="1" vertex="1">
          <mxGeometry x="320" y="960" width="40" height="40" as="geometry" />
        </mxCell>
        <mxCell id="Tp9BF6i-DsWpGKvdjkL9-143" value="В" style="rounded=0;whiteSpace=wrap;html=1;fontSize=24;" parent="1" vertex="1">
          <mxGeometry x="280" y="960" width="40" height="40" as="geometry" />
        </mxCell>
        <mxCell id="Tp9BF6i-DsWpGKvdjkL9-144" value="І" style="rounded=0;whiteSpace=wrap;html=1;fontSize=24;" parent="1" vertex="1">
          <mxGeometry x="240" y="960" width="40" height="40" as="geometry" />
        </mxCell>
        <mxCell id="Tp9BF6i-DsWpGKvdjkL9-145" value="Г" style="rounded=0;whiteSpace=wrap;html=1;fontSize=24;" parent="1" vertex="1">
          <mxGeometry x="200" y="960" width="40" height="40" as="geometry" />
        </mxCell>
        <mxCell id="Tp9BF6i-DsWpGKvdjkL9-146" value="Н" style="rounded=0;whiteSpace=wrap;html=1;fontSize=24;" parent="1" vertex="1">
          <mxGeometry x="120" y="960" width="40" height="40" as="geometry" />
        </mxCell>
        <mxCell id="Tp9BF6i-DsWpGKvdjkL9-148" value="К" style="rounded=0;whiteSpace=wrap;html=1;fontSize=24;" parent="1" vertex="1">
          <mxGeometry x="400" y="960" width="40" height="40" as="geometry" />
        </mxCell>
        <mxCell id="Tp9BF6i-DsWpGKvdjkL9-149" value="З" style="rounded=0;whiteSpace=wrap;html=1;fontSize=24;" parent="1" vertex="1">
          <mxGeometry x="560" y="1040" width="40" height="40" as="geometry" />
        </mxCell>
        <mxCell id="Tp9BF6i-DsWpGKvdjkL9-150" value="А" style="rounded=0;whiteSpace=wrap;html=1;fontSize=24;" parent="1" vertex="1">
          <mxGeometry x="560" y="1080" width="40" height="40" as="geometry" />
        </mxCell>
        <mxCell id="Tp9BF6i-DsWpGKvdjkL9-151" value="Я" style="rounded=0;whiteSpace=wrap;html=1;fontSize=24;" parent="1" vertex="1">
          <mxGeometry x="560" y="1200" width="40" height="40" as="geometry" />
        </mxCell>
        <mxCell id="Tp9BF6i-DsWpGKvdjkL9-152" value="І" style="rounded=0;whiteSpace=wrap;html=1;fontSize=24;" parent="1" vertex="1">
          <mxGeometry x="560" y="1160" width="40" height="40" as="geometry" />
        </mxCell>
        <mxCell id="Tp9BF6i-DsWpGKvdjkL9-153" value="Ц" style="rounded=0;whiteSpace=wrap;html=1;fontSize=24;" parent="1" vertex="1">
          <mxGeometry x="560" y="1120" width="40" height="40" as="geometry" />
        </mxCell>
        <mxCell id="Tp9BF6i-DsWpGKvdjkL9-159" value="Ї" style="rounded=0;whiteSpace=wrap;html=1;fontSize=24;" parent="1" vertex="1">
          <mxGeometry x="320" y="680" width="40" height="40" as="geometry" />
        </mxCell>
        <mxCell id="Tp9BF6i-DsWpGKvdjkL9-160" value="И" style="rounded=0;whiteSpace=wrap;html=1;fontSize=24;" parent="1" vertex="1">
          <mxGeometry x="320" y="640" width="40" height="40" as="geometry" />
        </mxCell>
        <mxCell id="Tp9BF6i-DsWpGKvdjkL9-161" value="К" style="rounded=0;whiteSpace=wrap;html=1;fontSize=24;" parent="1" vertex="1">
          <mxGeometry x="320" y="600" width="40" height="40" as="geometry" />
        </mxCell>
        <mxCell id="Tp9BF6i-DsWpGKvdjkL9-162" value="Б" style="rounded=0;whiteSpace=wrap;html=1;fontSize=24;" parent="1" vertex="1">
          <mxGeometry x="560" y="760" width="40" height="40" as="geometry" />
        </mxCell>
        <mxCell id="Tp9BF6i-DsWpGKvdjkL9-163" value="У" style="rounded=0;whiteSpace=wrap;html=1;fontSize=24;" parent="1" vertex="1">
          <mxGeometry x="560" y="720" width="40" height="40" as="geometry" />
        </mxCell>
        <mxCell id="Tp9BF6i-DsWpGKvdjkL9-164" value="У" style="rounded=0;whiteSpace=wrap;html=1;fontSize=24;" parent="1" vertex="1">
          <mxGeometry x="560" y="800" width="40" height="40" as="geometry" />
        </mxCell>
        <mxCell id="Tp9BF6i-DsWpGKvdjkL9-165" value="А" style="rounded=0;whiteSpace=wrap;html=1;fontSize=24;" parent="1" vertex="1">
          <mxGeometry x="560" y="920" width="40" height="40" as="geometry" />
        </mxCell>
        <mxCell id="Tp9BF6i-DsWpGKvdjkL9-166" value="Б" style="rounded=0;whiteSpace=wrap;html=1;fontSize=24;" parent="1" vertex="1">
          <mxGeometry x="560" y="880" width="40" height="40" as="geometry" />
        </mxCell>
        <mxCell id="Tp9BF6i-DsWpGKvdjkL9-167" value="Р" style="rounded=0;whiteSpace=wrap;html=1;fontSize=24;" parent="1" vertex="1">
          <mxGeometry x="560" y="840" width="40" height="40" as="geometry" />
        </mxCell>
        <mxCell id="Tp9BF6i-DsWpGKvdjkL9-168" value="І" style="rounded=0;whiteSpace=wrap;html=1;fontSize=24;" parent="1" vertex="1">
          <mxGeometry x="560" y="1000" width="40" height="40" as="geometry" />
        </mxCell>
        <mxCell id="Tp9BF6i-DsWpGKvdjkL9-169" value="Н" style="rounded=0;whiteSpace=wrap;html=1;fontSize=24;" parent="1" vertex="1">
          <mxGeometry x="560" y="960" width="40" height="40" as="geometry" />
        </mxCell>
        <mxCell id="Tp9BF6i-DsWpGKvdjkL9-170" value="С" style="rounded=0;whiteSpace=wrap;html=1;fontSize=24;" parent="1" vertex="1">
          <mxGeometry x="560" y="680" width="40" height="40" as="geometry" />
        </mxCell>
        <mxCell id="Tp9BF6i-DsWpGKvdjkL9-171" value="А" style="rounded=0;whiteSpace=wrap;html=1;fontSize=24;" parent="1" vertex="1">
          <mxGeometry x="520" y="680" width="40" height="40" as="geometry" />
        </mxCell>
        <mxCell id="Tp9BF6i-DsWpGKvdjkL9-172" value="Е" style="rounded=0;whiteSpace=wrap;html=1;fontSize=24;" parent="1" vertex="1">
          <mxGeometry x="440" y="680" width="40" height="40" as="geometry" />
        </mxCell>
        <mxCell id="Tp9BF6i-DsWpGKvdjkL9-173" value="К" style="rounded=0;whiteSpace=wrap;html=1;fontSize=24;" parent="1" vertex="1">
          <mxGeometry x="440" y="720" width="40" height="40" as="geometry" />
        </mxCell>
        <mxCell id="Tp9BF6i-DsWpGKvdjkL9-174" value="Т" style="rounded=0;whiteSpace=wrap;html=1;fontSize=24;" parent="1" vertex="1">
          <mxGeometry x="600" y="680" width="40" height="40" as="geometry" />
        </mxCell>
        <mxCell id="Tp9BF6i-DsWpGKvdjkL9-175" value="Н" style="rounded=0;whiteSpace=wrap;html=1;fontSize=24;" parent="1" vertex="1">
          <mxGeometry x="640" y="720" width="40" height="40" as="geometry" />
        </mxCell>
        <mxCell id="Tp9BF6i-DsWpGKvdjkL9-176" value="О" style="rounded=0;whiteSpace=wrap;html=1;fontSize=24;" parent="1" vertex="1">
          <mxGeometry x="640" y="680" width="40" height="40" as="geometry" />
        </mxCell>
        <mxCell id="Tp9BF6i-DsWpGKvdjkL9-177" value="Е" style="rounded=0;whiteSpace=wrap;html=1;fontSize=24;" parent="1" vertex="1">
          <mxGeometry x="640" y="760" width="40" height="40" as="geometry" />
        </mxCell>
        <mxCell id="Tp9BF6i-DsWpGKvdjkL9-178" value="К" style="rounded=0;whiteSpace=wrap;html=1;fontSize=24;" parent="1" vertex="1">
          <mxGeometry x="640" y="880" width="40" height="40" as="geometry" />
        </mxCell>
        <mxCell id="Tp9BF6i-DsWpGKvdjkL9-179" value="Ь" style="rounded=0;whiteSpace=wrap;html=1;fontSize=24;" parent="1" vertex="1">
          <mxGeometry x="640" y="840" width="40" height="40" as="geometry" />
        </mxCell>
        <mxCell id="Tp9BF6i-DsWpGKvdjkL9-180" value="Ц" style="rounded=0;whiteSpace=wrap;html=1;fontSize=24;" parent="1" vertex="1">
          <mxGeometry x="640" y="800" width="40" height="40" as="geometry" />
        </mxCell>
        <mxCell id="Tp9BF6i-DsWpGKvdjkL9-181" value="А" style="rounded=0;whiteSpace=wrap;html=1;fontSize=24;" parent="1" vertex="1">
          <mxGeometry x="640" y="920" width="40" height="40" as="geometry" />
        </mxCell>
        <mxCell id="Tp9BF6i-DsWpGKvdjkL9-182" value="Д" style="rounded=0;whiteSpace=wrap;html=1;fontSize=24;" parent="1" vertex="1">
          <mxGeometry x="640" y="640" width="40" height="40" as="geometry" />
        </mxCell>
        <mxCell id="Tp9BF6i-DsWpGKvdjkL9-191" value="П" style="rounded=0;whiteSpace=wrap;html=1;fontSize=24;" parent="1" vertex="1">
          <mxGeometry x="680" y="680" width="40" height="40" as="geometry" />
        </mxCell>
        <mxCell id="Tp9BF6i-DsWpGKvdjkL9-192" value="Р" style="rounded=0;whiteSpace=wrap;html=1;fontSize=24;" parent="1" vertex="1">
          <mxGeometry x="720" y="800" width="40" height="40" as="geometry" />
        </mxCell>
        <mxCell id="Tp9BF6i-DsWpGKvdjkL9-193" value="Е" style="rounded=0;whiteSpace=wrap;html=1;fontSize=24;" parent="1" vertex="1">
          <mxGeometry x="720" y="760" width="40" height="40" as="geometry" />
        </mxCell>
        <mxCell id="Tp9BF6i-DsWpGKvdjkL9-194" value="М" style="rounded=0;whiteSpace=wrap;html=1;fontSize=24;" parent="1" vertex="1">
          <mxGeometry x="720" y="720" width="40" height="40" as="geometry" />
        </mxCell>
        <mxCell id="Tp9BF6i-DsWpGKvdjkL9-195" value="Ц" style="rounded=0;whiteSpace=wrap;html=1;fontSize=24;" parent="1" vertex="1">
          <mxGeometry x="720" y="840" width="40" height="40" as="geometry" />
        </mxCell>
        <mxCell id="Tp9BF6i-DsWpGKvdjkL9-196" value="З" style="rounded=0;whiteSpace=wrap;html=1;fontSize=24;" parent="1" vertex="1">
          <mxGeometry x="720" y="1040" width="40" height="40" as="geometry" />
        </mxCell>
        <mxCell id="Tp9BF6i-DsWpGKvdjkL9-197" value="А" style="rounded=0;whiteSpace=wrap;html=1;fontSize=24;" parent="1" vertex="1">
          <mxGeometry x="720" y="1080" width="40" height="40" as="geometry" />
        </mxCell>
        <mxCell id="Tp9BF6i-DsWpGKvdjkL9-198" value="Я" style="rounded=0;whiteSpace=wrap;html=1;fontSize=24;" parent="1" vertex="1">
          <mxGeometry x="720" y="1200" width="40" height="40" as="geometry" />
        </mxCell>
        <mxCell id="Tp9BF6i-DsWpGKvdjkL9-199" value="І" style="rounded=0;whiteSpace=wrap;html=1;fontSize=24;" parent="1" vertex="1">
          <mxGeometry x="720" y="1160" width="40" height="40" as="geometry" />
        </mxCell>
        <mxCell id="Tp9BF6i-DsWpGKvdjkL9-200" value="Ц" style="rounded=0;whiteSpace=wrap;html=1;fontSize=24;" parent="1" vertex="1">
          <mxGeometry x="720" y="1120" width="40" height="40" as="geometry" />
        </mxCell>
        <mxCell id="Tp9BF6i-DsWpGKvdjkL9-202" value="А" style="rounded=0;whiteSpace=wrap;html=1;fontSize=24;" parent="1" vertex="1">
          <mxGeometry x="720" y="920" width="40" height="40" as="geometry" />
        </mxCell>
        <mxCell id="Tp9BF6i-DsWpGKvdjkL9-203" value="І" style="rounded=0;whiteSpace=wrap;html=1;fontSize=24;" parent="1" vertex="1">
          <mxGeometry x="720" y="880" width="40" height="40" as="geometry" />
        </mxCell>
        <mxCell id="Tp9BF6i-DsWpGKvdjkL9-204" value="І" style="rounded=0;whiteSpace=wrap;html=1;fontSize=24;" parent="1" vertex="1">
          <mxGeometry x="720" y="1000" width="40" height="40" as="geometry" />
        </mxCell>
        <mxCell id="Tp9BF6i-DsWpGKvdjkL9-205" value="Л" style="rounded=0;whiteSpace=wrap;html=1;fontSize=24;" parent="1" vertex="1">
          <mxGeometry x="720" y="960" width="40" height="40" as="geometry" />
        </mxCell>
        <mxCell id="Tp9BF6i-DsWpGKvdjkL9-206" value="О" style="rounded=0;whiteSpace=wrap;html=1;fontSize=24;" parent="1" vertex="1">
          <mxGeometry x="720" y="680" width="40" height="40" as="geometry" />
        </mxCell>
        <mxCell id="Tp9BF6i-DsWpGKvdjkL9-207" value="Л" style="rounded=0;whiteSpace=wrap;html=1;fontSize=24;" parent="1" vertex="1">
          <mxGeometry x="760" y="680" width="40" height="40" as="geometry" />
        </mxCell>
        <mxCell id="Tp9BF6i-DsWpGKvdjkL9-208" value="Ь" style="rounded=0;whiteSpace=wrap;html=1;fontSize=24;" parent="1" vertex="1">
          <mxGeometry x="800" y="680" width="40" height="40" as="geometry" />
        </mxCell>
        <mxCell id="Tp9BF6i-DsWpGKvdjkL9-209" value="І" style="rounded=0;whiteSpace=wrap;html=1;fontSize=24;" parent="1" vertex="1">
          <mxGeometry x="760" y="800" width="40" height="40" as="geometry" />
        </mxCell>
        <mxCell id="Tp9BF6i-DsWpGKvdjkL9-210" value="Ц" style="rounded=0;whiteSpace=wrap;html=1;fontSize=24;" parent="1" vertex="1">
          <mxGeometry x="760" y="760" width="40" height="40" as="geometry" />
        </mxCell>
        <mxCell id="Tp9BF6i-DsWpGKvdjkL9-211" value="Я" style="rounded=0;whiteSpace=wrap;html=1;fontSize=24;" parent="1" vertex="1">
          <mxGeometry x="760" y="720" width="40" height="40" as="geometry" />
        </mxCell>
        <mxCell id="Tp9BF6i-DsWpGKvdjkL9-212" value="Я" style="rounded=0;whiteSpace=wrap;html=1;fontSize=24;" parent="1" vertex="1">
          <mxGeometry x="760" y="840" width="40" height="40" as="geometry" />
        </mxCell>
        <mxCell id="Tp9BF6i-DsWpGKvdjkL9-213" value="Д" style="rounded=0;whiteSpace=wrap;html=1;fontSize=24;" parent="1" vertex="1">
          <mxGeometry x="760" y="440" width="40" height="40" as="geometry" />
        </mxCell>
        <mxCell id="Tp9BF6i-DsWpGKvdjkL9-214" value="Е" style="rounded=0;whiteSpace=wrap;html=1;fontSize=24;" parent="1" vertex="1">
          <mxGeometry x="760" y="480" width="40" height="40" as="geometry" />
        </mxCell>
        <mxCell id="Tp9BF6i-DsWpGKvdjkL9-215" value="П" style="rounded=0;whiteSpace=wrap;html=1;fontSize=24;" parent="1" vertex="1">
          <mxGeometry x="760" y="600" width="40" height="40" as="geometry" />
        </mxCell>
        <mxCell id="Tp9BF6i-DsWpGKvdjkL9-216" value="О" style="rounded=0;whiteSpace=wrap;html=1;fontSize=24;" parent="1" vertex="1">
          <mxGeometry x="760" y="560" width="40" height="40" as="geometry" />
        </mxCell>
        <mxCell id="Tp9BF6i-DsWpGKvdjkL9-217" value="П" style="rounded=0;whiteSpace=wrap;html=1;fontSize=24;" parent="1" vertex="1">
          <mxGeometry x="760" y="520" width="40" height="40" as="geometry" />
        </mxCell>
        <mxCell id="Tp9BF6i-DsWpGKvdjkL9-218" value="У" style="rounded=0;whiteSpace=wrap;html=1;fontSize=24;" parent="1" vertex="1">
          <mxGeometry x="760" y="640" width="40" height="40" as="geometry" />
        </mxCell>
        <mxCell id="bTW8tHbXUx1BeAGjm1J4-1" value="Ч" style="rounded=0;whiteSpace=wrap;html=1;fontSize=24;" parent="1" vertex="1">
          <mxGeometry x="600" y="480" width="40" height="40" as="geometry" />
        </mxCell>
        <mxCell id="E0BsRtGwYjNaW8rnrM6_-5" value="К" style="rounded=0;whiteSpace=wrap;html=1;fontSize=24;" parent="1" vertex="1">
          <mxGeometry x="720" y="640" width="40" height="40" as="geometry" />
        </mxCell>
        <mxCell id="E0BsRtGwYjNaW8rnrM6_-9" value="3" style="text;html=1;strokeColor=none;fillColor=none;align=center;verticalAlign=middle;whiteSpace=wrap;rounded=0;fontSize=20;" parent="1" vertex="1">
          <mxGeometry x="365" y="205" width="30" height="30" as="geometry" />
        </mxCell>
        <mxCell id="E0BsRtGwYjNaW8rnrM6_-10" value="5" style="text;html=1;strokeColor=none;fillColor=none;align=center;verticalAlign=middle;whiteSpace=wrap;rounded=0;fontSize=20;" parent="1" vertex="1">
          <mxGeometry x="245" y="285" width="30" height="30" as="geometry" />
        </mxCell>
        <mxCell id="E0BsRtGwYjNaW8rnrM6_-11" value="7" style="text;html=1;strokeColor=none;fillColor=none;align=center;verticalAlign=middle;whiteSpace=wrap;rounded=0;fontSize=20;" parent="1" vertex="1">
          <mxGeometry x="85" y="365" width="30" height="30" as="geometry" />
        </mxCell>
        <mxCell id="E0BsRtGwYjNaW8rnrM6_-12" value="8" style="text;html=1;strokeColor=none;fillColor=none;align=center;verticalAlign=middle;whiteSpace=wrap;rounded=0;fontSize=20;" parent="1" vertex="1">
          <mxGeometry x="-35" y="445" width="30" height="30" as="geometry" />
        </mxCell>
        <mxCell id="E0BsRtGwYjNaW8rnrM6_-13" value="13" style="text;html=1;strokeColor=none;fillColor=none;align=center;verticalAlign=middle;whiteSpace=wrap;rounded=0;fontSize=20;" parent="1" vertex="1">
          <mxGeometry x="-155" y="605" width="30" height="30" as="geometry" />
        </mxCell>
        <mxCell id="E0BsRtGwYjNaW8rnrM6_-14" value="17" style="text;html=1;strokeColor=none;fillColor=none;align=center;verticalAlign=middle;whiteSpace=wrap;rounded=0;fontSize=20;" parent="1" vertex="1">
          <mxGeometry x="-235" y="685" width="30" height="30" as="geometry" />
        </mxCell>
        <mxCell id="E0BsRtGwYjNaW8rnrM6_-15" value="18" style="text;html=1;strokeColor=none;fillColor=none;align=center;verticalAlign=middle;whiteSpace=wrap;rounded=0;fontSize=20;" parent="1" vertex="1">
          <mxGeometry x="365" y="685" width="30" height="30" as="geometry" />
        </mxCell>
        <mxCell id="E0BsRtGwYjNaW8rnrM6_-16" value="19" style="text;html=1;strokeColor=none;fillColor=none;align=center;verticalAlign=middle;whiteSpace=wrap;rounded=0;fontSize=20;" parent="1" vertex="1">
          <mxGeometry x="85" y="725" width="30" height="30" as="geometry" />
        </mxCell>
        <mxCell id="E0BsRtGwYjNaW8rnrM6_-17" value="20" style="text;html=1;strokeColor=none;fillColor=none;align=center;verticalAlign=middle;whiteSpace=wrap;rounded=0;fontSize=20;" parent="1" vertex="1">
          <mxGeometry x="-35" y="805" width="30" height="30" as="geometry" />
        </mxCell>
        <mxCell id="E0BsRtGwYjNaW8rnrM6_-18" value="21" style="text;html=1;strokeColor=none;fillColor=none;align=center;verticalAlign=middle;whiteSpace=wrap;rounded=0;fontSize=20;" parent="1" vertex="1">
          <mxGeometry x="-274" y="925" width="30" height="30" as="geometry" />
        </mxCell>
        <mxCell id="E0BsRtGwYjNaW8rnrM6_-19" value="22" style="text;html=1;strokeColor=none;fillColor=none;align=center;verticalAlign=middle;whiteSpace=wrap;rounded=0;fontSize=20;" parent="1" vertex="1">
          <mxGeometry x="-35" y="965" width="30" height="30" as="geometry" />
        </mxCell>
        <mxCell id="E0BsRtGwYjNaW8rnrM6_-20" value="1" style="text;html=1;strokeColor=none;fillColor=none;align=center;verticalAlign=middle;whiteSpace=wrap;rounded=0;fontSize=20;" parent="1" vertex="1">
          <mxGeometry x="404" y="164" width="30" height="30" as="geometry" />
        </mxCell>
        <mxCell id="E0BsRtGwYjNaW8rnrM6_-21" value="2" style="text;html=1;strokeColor=none;fillColor=none;align=center;verticalAlign=middle;whiteSpace=wrap;rounded=0;fontSize=20;" parent="1" vertex="1">
          <mxGeometry x="604" y="164" width="30" height="30" as="geometry" />
        </mxCell>
        <mxCell id="E0BsRtGwYjNaW8rnrM6_-22" value="4" style="text;html=1;strokeColor=none;fillColor=none;align=center;verticalAlign=middle;whiteSpace=wrap;rounded=0;fontSize=20;" parent="1" vertex="1">
          <mxGeometry x="285" y="245" width="30" height="30" as="geometry" />
        </mxCell>
        <mxCell id="E0BsRtGwYjNaW8rnrM6_-23" value="6" style="text;html=1;strokeColor=none;fillColor=none;align=center;verticalAlign=middle;whiteSpace=wrap;rounded=0;fontSize=20;" parent="1" vertex="1">
          <mxGeometry x="485" y="285" width="30" height="30" as="geometry" />
        </mxCell>
        <mxCell id="E0BsRtGwYjNaW8rnrM6_-24" value="9" style="text;html=1;strokeColor=none;fillColor=none;align=center;verticalAlign=middle;whiteSpace=wrap;rounded=0;fontSize=20;" parent="1" vertex="1">
          <mxGeometry x="765" y="405" width="30" height="30" as="geometry" />
        </mxCell>
        <mxCell id="E0BsRtGwYjNaW8rnrM6_-25" value="10" style="text;html=1;strokeColor=none;fillColor=none;align=center;verticalAlign=middle;whiteSpace=wrap;rounded=0;fontSize=20;" parent="1" vertex="1">
          <mxGeometry x="-115" y="565" width="30" height="30" as="geometry" />
        </mxCell>
        <mxCell id="E0BsRtGwYjNaW8rnrM6_-26" value="11" style="text;html=1;strokeColor=none;fillColor=none;align=center;verticalAlign=middle;whiteSpace=wrap;rounded=0;fontSize=20;" parent="1" vertex="1">
          <mxGeometry x="165" y="565" width="30" height="30" as="geometry" />
        </mxCell>
        <mxCell id="E0BsRtGwYjNaW8rnrM6_-27" value="12" style="text;html=1;strokeColor=none;fillColor=none;align=center;verticalAlign=middle;whiteSpace=wrap;rounded=0;fontSize=20;" parent="1" vertex="1">
          <mxGeometry x="325" y="565" width="30" height="30" as="geometry" />
        </mxCell>
        <mxCell id="E0BsRtGwYjNaW8rnrM6_-28" value="14" style="text;html=1;strokeColor=none;fillColor=none;align=center;verticalAlign=middle;whiteSpace=wrap;rounded=0;fontSize=20;" parent="1" vertex="1">
          <mxGeometry x="645" y="604" width="30" height="30" as="geometry" />
        </mxCell>
        <mxCell id="E0BsRtGwYjNaW8rnrM6_-29" value="15" style="text;html=1;strokeColor=none;fillColor=none;align=center;verticalAlign=middle;whiteSpace=wrap;rounded=0;fontSize=20;" parent="1" vertex="1">
          <mxGeometry x="725" y="605" width="30" height="30" as="geometry" />
        </mxCell>
        <mxCell id="E0BsRtGwYjNaW8rnrM6_-30" value="16" style="text;html=1;strokeColor=none;fillColor=none;align=center;verticalAlign=middle;whiteSpace=wrap;rounded=0;fontSize=20;" parent="1" vertex="1">
          <mxGeometry x="565" y="645" width="30" height="30" as="geometry" />
        </mxCell>
        <mxCell id="bDHge4QJF-Ank45aLchl-1" value="А" style="rounded=0;whiteSpace=wrap;html=1;fontSize=24;" parent="1" vertex="1">
          <mxGeometry x="440" y="960" width="40" height="40" as="geometry" />
        </mxCell>
      </root>
    </mxGraphModel>
  </diagram>
</mxfile>
